<svg width="64" height="32" xmlns="http://www.w3.org/2000/svg">
  <rect x="4" y="8" width="56" height="4" fill="#8B4513"/>
  <rect x="4" y="20" width="56" height="4" fill="#8B4513"/>
  <rect x="6" y="4" width="4" height="24" fill="#A0522D"/>
  <rect x="18" y="4" width="4" height="24" fill="#A0522D"/>
  <rect x="30" y="4" width="4" height="24" fill="#A0522D"/>
  <rect x="42" y="4" width="4" height="24" fill="#A0522D"/>
  <rect x="54" y="4" width="4" height="24" fill="#A0522D"/>
  <polygon points="6,4 8,0 10,4" fill="#A0522D"/>
  <polygon points="18,4 20,0 22,4" fill="#A0522D"/>
  <polygon points="30,4 32,0 34,4" fill="#A0522D"/>
  <polygon points="42,4 44,0 46,4" fill="#A0522D"/>
  <polygon points="54,4 56,0 58,4" fill="#A0522D"/>
</svg>
